# xmcd CD database file
#
# Track frame offsets:
#	150
#	24469
#	45379
#	66293
#	86348
#	108533
#	124657
#	144043
#	160959
#	182727
#	202970
#	223296
#
# Disc length: 3336 seconds
#
# Revision: 1
# Processed by: cddbd v1.5.2PL0 Copyright (c) Steve Scherf et al.
# Submitted via: CDex 1.79
#
DISCID=a20d060c
DTITLE=John Alcorn - Flying Without Wings
DYEAR=2013
DGENRE=Jazz
TTITLE0=Just One Of Those Things
TTITLE1=The Song Is Ended
TTITLE2=It's Like Reaching For The Moon
TTITLE3=Just In Time
TTITLE4=Love Walked In
TTITLE5=Let's Face The Music And Dance
TTITLE6=You're My Thrill
TTITLE7=Say It Isn't So
TTITLE8=But Not For Me
TTITLE9=From This Moment On
TTITLE10=Lazy
TTITLE11=I Wish I Knew
EXTD=YEAR: 2013
EXTT0=
EXTT1=
EXTT2=
EXTT3=
EXTT4=
EXTT5=
EXTT6=
EXTT7=
EXTT8=
EXTT9=
EXTT10=
EXTT11=
PLAYORDER=
